# AST/ASF file generated using VICON BodyLanguage
# -----------------------------------------------
:version 1.10
:name VICON
:units
  mass 1.0
  length 0.45
  angle deg
:documentation
   .ast/.asf automatically generated from VICON data using
   VICON BodyBuilder and BodyLanguage model FoxedUp or BRILLIANT.MOD
:root
   order TX TY TZ RX RY RZ
   axis XYZ
   position 0 0 0  
   orientation 0 0 0 
:bonedata
  begin
     id 1 
     name lhipjoint
     direction 0.690799 -0.707083 0.151096 
     length 2.54797 
     axis 0 0 0  XYZ
  end
  begin
     id 2 
     name lfemur
     direction 0.34202 -0.939693 0  
     length 7.21646  
     axis 0 0 20  XYZ
    dof rx ry rz
    limits (-160.0 20.0)
           (-70.0 70.0)
           (-60.0 70.0)
  end
  begin
     id 3 
     name ltibia
     direction 0.34202 -0.939693 0   
     length 8.16759   
     axis 0 0 20   XYZ
    dof rx
    limits (-10.0 170.0)
  end
  begin
     id 4 
     name lfoot
     direction 0.0487203 -0.133858 0.989802   
     length 1.93375   
     axis -90 7.62852e-016 20   XYZ
    dof rx rz
    limits (-45.0 90.0)
           (-70.0 20.0)
  end
  begin
     id 5 
     name ltoes
     direction 1.53453e-011 -4.21783e-011 1   
     length 0.979747   
     axis -90 7.62852e-016 20   XYZ
    dof rx
    limits (-90.0 20.0)
  end
  begin
     id 6 
     name rhipjoint
     direction -0.694693 -0.703425 0.150315   
     length 2.56122  
     axis 0 0 0  XYZ 
  end
  begin
     id 7 
     name rfemur
     direction -0.34202 -0.939693 0   
     length 7.36786   
     axis 0 0 -20   XYZ
    dof rx ry rz
    limits (-160.0 20.0)
           (-70.0 70.0)
           (-70.0 60.0)
  end
  begin
     id 8 
     name rtibia
     direction -0.34202 -0.939693 0   
     length 8.07288   
     axis 0 0 -20   XYZ
    dof rx
    limits (-10.0 170.0)
 end
 begin
     id 9 
     name rfoot
     direction -0.0428397 -0.117701 0.992125   
     length 1.88295  
     axis -90 -7.62852e-016 -20   XYZ
    dof rx rz
    limits (-45.0 90.0)
           (-20.0 70.0)
  end
  begin
     id 10 
     name rtoes
     direction -1.53456e-011 -4.2187e-011 1   
     length 0.955578   
     axis -90 -7.62852e-016 -20   XYZ
    dof rx
    limits (-90.0 20.0)
  end
  begin
     id 11 
     name lowerback
     direction 0.0288145 0.999398 -0.0193241   
     length 1.92149   
     axis 0 0 0   XYZ
    dof rx ry rz
    limits (-20.0 45.0)
           (-30.0 30.0)
           (-30.0 30.0)
  end
  begin
     id 12 
     name upperback
     direction 0.0233784 0.998099 0.0570278   
     length 1.90435   
     axis 0 0 0   XYZ
    dof rx ry rz
    limits (-20.0 45.0)
           (-30.0 30.0)
           (-30.0 30.0)
  end
  begin
     id 13 
     name thorax
     direction 0.0096694 0.997833 0.0650817   
     length 1.9111   
     axis 0 0 0   XYZ
    dof rx ry rz
    limits (-20.0 45.0)
           (-30.0 30.0)
           (-30.0 30.0)
  end
  begin
     id 14 
     name lowerneck
     direction 0.00516803 0.999916 0.0118722   
     length 1.74664   
     axis 0 0 0   XYZ
    dof rx ry rz
    limits (-20.0 45.0)
           (-30.0 30.0)
           (-30.0 30.0)
  end
  begin
     id 15 
     name upperneck
     direction -0.0510851 0.996117 -0.071696   
     length 1.68498   
     axis 0 0 0   XYZ
    dof rx ry rz
    limits (-20.0 45.0)
           (-30.0 30.0)
           (-30.0 30.0)
  end
  begin
     id 16
     name head
     direction -0.019188 0.999436 -0.0275702  
     length 1.83483  
     axis 0 0 0   XYZ
    dof rx ry rz
    limits (-20.0 45.0)
           (-30.0 30.0)
           (-30.0 30.0)
  end
  begin
     id 17 
     name lclavicle
     direction 0.967006 0.248456 -0.0562957  
     length 3.39395  
     axis 0 0 0   XYZ
    dof ry rz
    limits (-20.0 10.0)
           (0.0 20.0)
  end
  begin
     id 18 
     name lhumerus
     direction 1 -4.48962e-011 -5.62711e-019   
     length 5.24318   
     axis 180 -30 -90   XYZ
    dof rx ry rz
    limits (-60.0 90.0)
           (-90.0 90.0)
           (-90.0 90.0)
  end
  begin
     id 19
     name lradius
     direction 1 -4.48966e-011 7.90625e-027   
     length 2.98999   
     axis 180 -30 -90   XYZ
    dof rx
    limits (-10.0 170.0)
  end
  begin
     id 20
     name lwrist
     direction 1 -4.48959e-011 1.61068e-026   
     length 1.49499   
     axis -9.31229e-015 90 90   XYZ
    dof ry
    limits (-180.0 0.0)
 end
  begin
     id 21 
     name lhand
     direction 1 -4.49017e-011 3.22136e-026   
     length 0.726745   
     axis -2.0555e-014 90 90   XYZ
    dof rx rz
    limits (-90.0 90.0)
           (-45.0 45.0)
  end
  begin
     id 22 
     name lfingers
     direction 1 -4.4898e-011 6.44272e-026   
     length 0.58592   
     axis -4.11101e-014 90 90   XYZ
    dof rx
    limits (0.0 90.0)
  end
  begin
     id 23
     name lthumb
     direction 0.707107 -6.34922e-011 0.707107   
     length 0.841268   
     axis -90 45 2.85299e-015   XYZ
    dof rx rz
    limits (-45.0 45.0)
           (-45.0 45.0)
  end
  begin
     id 24 
     name rclavicle
     direction -0.972232 0.230238 0.0419005   
     length 3.40416  
     axis 0 0 0   XYZ 
    dof ry rz
    limits (-10.0 20.0)
           (-20.0 0.0)
  end
  begin
     id 25 
     name rhumerus
     direction -1 -4.48976e-011 2.48487e-027  
     length 5.37045   
     axis 180 30 90   XYZ
    dof rx ry rz
    limits (-90.0 60.0)
           (-90.0 90.0)
           (-90.0 90.0)
  end
  begin
     id 26 
     name rradius
     direction -1 -4.48942e-011 7.87951e-027   
     length 2.92792   
     axis 180 30 90   XYZ
    dof rx
    limits (-10.0 170.0)
  end
  begin
     id 27 
     name rwrist
     direction -1 -4.48969e-011 1.61068e-026   
     length 1.46396   
     axis -9.31229e-015 -90 -90   XYZ
    dof ry
    limits (-180.0 0.0)
  end
  begin
     id 28
     name rhand
     direction -1 -4.49043e-011 3.22136e-026   
     length 0.784497   
     axis -2.0555e-014 -90 -90   XYZ
    dof rx rz
    limits (-90.0 90.0)
           (-45.0 45.0)
  end
  begin
     id 29
     name rfingers
     direction -1 -4.48823e-011 6.44272e-026   
     length 0.632482   
     axis -4.11101e-014 -90 -90   XYZ
    dof rx
    limits (0.0 90.0)
  end
  begin
     id 30
     name rthumb
     direction -0.707107 -6.34923e-011 0.707107   
     length 0.908121   
     axis -90 -45 -2.85299e-015   XYZ
    dof rx rz
    limits (-45.0 45.0)
           (-45.0 45.0)
  end
:hierarchy
  begin
    root lhipjoint rhipjoint lowerback
    lhipjoint lfemur
    lfemur ltibia
    ltibia lfoot
    lfoot ltoes
    rhipjoint rfemur
    rfemur rtibia
    rtibia rfoot
    rfoot rtoes
    lowerback upperback
    upperback thorax
    thorax lowerneck lclavicle rclavicle
    lowerneck upperneck
    upperneck head
    lclavicle lhumerus
    lhumerus lradius
    lradius lwrist
    lwrist lhand lthumb
    lhand lfingers
    rclavicle rhumerus
    rhumerus rradius
    rradius rwrist
    rwrist rhand rthumb
    rhand rfingers
  end

#!OML:ASF E:\Style6\Style6.ASF
:FULLY-SPECIFIED
:DEGREES
531
root 0.265242 17.9853 0.150292 35.2148 -9.07041 1.44999
lowerback 24.1985 -0.633292 11.7235
upperback -0.446553 3.02277 3.87323
thorax -13.8335 0.694217 -3.2818
lowerneck -9.1741 2.57293 3.19005
upperneck -7.15132 3.09418 -2.14947
head -0.614065 1.4749 -1.12437
rclavicle 9.54166e-015 -3.02153e-014
rhumerus -60.6699 -44.3518 -20.7943
rradius 75.5264
rwrist 183.601
rhand -26.4362 8.08375
rfingers 7.12502
rthumb 0.12441 -21.896
lclavicle 9.54166e-015 -3.02153e-014
lhumerus -52.8216 28.3576 49.0017
lradius 56.9468
lwrist 7.83793
lhand -20.1028 31.656
lfingers 7.12502
lthumb 6.24062 61.5441
rfemur -51.175 13.1594 5.91197
rtibia 22.2836
rfoot -3.47366 -18.7375
rtoes -7.84987
lfemur -45.1173 -16.2589 -8.82211
ltibia 20.9886
lfoot -7.92248 27.7772
ltoes 0.778525
532
root 0.253221 17.9844 0.151832 35.3125 -8.97057 1.35121
lowerback 24.1731 -0.633154 11.813
upperback -0.447569 3.04633 3.88849
thorax -13.8143 0.700125 -3.32155
lowerneck -9.27836 2.55176 3.13139
upperneck -7.12698 3.06964 -2.08414
head -0.592449 1.46351 -1.09282
rclavicle -3.81667e-014 -3.18055e-015
rhumerus -60.6615 -44.4798 -20.9157
rradius 75.127
rwrist 183.135
rhand -25.8595 8.00488
rfingers 7.12502
rthumb 0.681458 -21.9738
lclavicle -3.81667e-014 -3.18055e-015
lhumerus -52.6454 28.3294 49.1741
lradius 56.9219
lwrist 8.0292
lhand -20.1415 31.8246
lfingers 7.12502
lthumb 6.2032 61.7138
rfemur -51.2082 13.1349 6.10115
rtibia 22.2251
rfoot -3.4913 -18.7475
rtoes -7.54207
lfemur -45.2365 -16.4288 -8.47366
ltibia 20.9872
lfoot -7.97835 27.9872
ltoes 0.859893
533
root 0.241836 17.9838 0.151734 35.4293 -8.90011 1.27811
lowerback 24.1274 -0.634947 11.8585
upperback -0.49521 3.05471 3.88297
thorax -13.8423 0.697599 -3.35467
lowerneck -9.17443 2.55029 3.15149
upperneck -7.19442 3.06936 -2.07522
head -0.630069 1.46312 -1.09538
rclavicle 2.22639e-014 0
rhumerus -60.6982 -44.5324 -21.0366
rradius 74.7093
rwrist 182.604
rhand -25.361 8.01301
rfingers 7.12502
rthumb 1.16294 -21.9636
lclavicle 2.22639e-014 0
lhumerus -52.7022 28.4018 49.2004
lradius 57.0338
lwrist 8.05948
lhand -20.2367 31.8391
lfingers 7.12502
lthumb 6.11125 61.7309
rfemur -51.267 13.0898 6.25716
rtibia 22.1425
rfoot -3.42239 -18.6936
rtoes -7.8642
lfemur -45.3853 -16.508 -8.21242
ltibia 21.0141
lfoot -8.14413 28.1086
ltoes 1.11281
534
root 0.2306 17.9828 0.152032 35.525 -8.85782 1.18888
lowerback 24.1259 -0.625336 11.9138
upperback -0.556919 3.08775 3.865
thorax -13.9077 0.702023 -3.41685
lowerneck -8.99027 2.56008 3.26546
upperneck -7.27918 3.07562 -2.17005
head -0.682591 1.46425 -1.14781
rclavicle 3.18055e-015 -7.15625e-014
rhumerus -60.8022 -44.5832 -21.1426
rradius 74.3547
rwrist 182.007
rhand -24.9468 7.98803
rfingers 7.12502
rthumb 1.56291 -21.986
lclavicle 3.18055e-015 -7.15625e-014
lhumerus -52.7291 28.3592 49.2601
lradius 57.1053
lwrist 8.28017
lhand -20.4256 31.8221
lfingers 7.12502
lthumb 5.92897 61.7192
rfemur -51.3255 13.0653 6.41462
rtibia 22.0836
rfoot -3.3421 -18.604
rtoes -8.02315
lfemur -45.4821 -16.5077 -8.01128
ltibia 21.0315
lfoot -8.44503 28.1913
ltoes 1.72311
535
root 0.220446 17.9835 0.153436 35.5664 -8.86134 1.16624
lowerback 24.1391 -0.622723 11.9293
upperback -0.576202 3.09321 3.81623
thorax -13.9336 0.698934 -3.48386
lowerneck -8.86606 2.57066 3.30254
upperneck -7.37886 3.08933 -2.20928
head -0.732189 1.47058 -1.16889
rclavicle 1.11319e-014 1.27222e-014
rhumerus -60.9 -44.7431 -21.2678
rradius 74.0447
rwrist 181.441
rhand -24.6859 7.91186
rfingers 7.12502
rthumb 1.81491 -22.0602
lclavicle 1.11319e-014 1.27222e-014
lhumerus -52.6441 28.3266 49.3393
lradius 57.0813
lwrist 8.68861
lhand -20.5303 31.7931
lfingers 7.12502
lthumb 5.8278 61.693
rfemur -51.3316 13.0372 6.49741
rtibia 22.0337
rfoot -3.26512 -18.5299
rtoes -8.26837
lfemur -45.5256 -16.6219 -7.85195
ltibia 21.0177
lfoot -8.64236 28.3366
ltoes 2.34432
536
root 0.210054 17.9835 0.155717 35.6496 -8.86553 1.17371
lowerback 24.1068 -0.631175 11.8935
upperback -0.615273 3.06602 3.77454
thorax -13.965 0.684698 -3.50177
lowerneck -8.75522 2.60226 3.30688
upperneck -7.47573 3.13512 -2.2022
head -0.779232 1.49366 -1.16889
rclavicle -3.33958e-014 -5.88403e-014
rhumerus -60.8657 -44.7945 -21.5163
rradius 73.7263
rwrist 180.838
rhand -24.3388 7.90388
rfingers 7.12502
rthumb 2.15013 -22.065
lclavicle -3.33958e-014 -5.88403e-014
lhumerus -52.6388 28.3096 49.4085
lradius 57.0554
lwrist 9.1973
lhand -20.6961 31.7452
lfingers 7.12502
lthumb 5.66781 61.6494
rfemur -51.3707 12.9534 6.57278
rtibia 21.9772
rfoot -3.15742 -18.4282
rtoes -8.69603
lfemur -45.6144 -16.7481 -7.69959
ltibia 20.9883
lfoot -8.6631 28.4993
ltoes 2.69072
537
root 0.198159 17.9841 0.158305 35.701 -8.88486 1.1556
lowerback 24.0974 -0.624327 11.8387
upperback -0.632344 3.05592 3.74442
thorax -13.9819 0.68136 -3.50233
lowerneck -8.72128 2.61416 3.34539
upperneck -7.49923 3.14849 -2.21921
head -0.790846 1.49955 -1.18127
rclavicle 2.38542e-014 2.38542e-014
rhumerus -60.8056 -44.8164 -21.774
rradius 73.3904
rwrist 180.152
rhand -24.0221 7.82613
rfingers 7.12502
rthumb 2.45604 -22.1395
lclavicle 2.38542e-014 2.38542e-014
lhumerus -52.662 28.3078 49.4696
lradius 57.1248
lwrist 9.73334
lhand -20.871 31.8423
lfingers 7.12502
lthumb 5.49887 61.7509
rfemur -51.3919 12.9377 6.64407
rtibia 21.929
rfoot -3.09206 -18.4059
rtoes -9.06563
lfemur -45.6486 -16.9187 -7.49609
ltibia 20.948
lfoot -8.73767 28.7347
ltoes 2.80444
538
root 0.186492 17.9846 0.161008 35.6815 -8.88682 1.14164
lowerback 24.1553 -0.621978 11.8218
upperback -0.62495 3.05827 3.71413
thorax -14.0043 0.680932 -3.53009
lowerneck -8.66692 2.59012 3.35587
upperneck -7.52613 3.11622 -2.24497
head -0.808335 1.48332 -1.193
rclavicle 1.74931e-014 8.42847e-014
rhumerus -60.7855 -44.9056 -21.9412
rradius 73.0611
rwrist 179.561
rhand -23.8055 7.71923
rfingers 7.12502
rthumb 2.66521 -22.2439
lclavicle 1.74931e-014 8.42847e-014
lhumerus -52.6179 28.2835 49.5813
lradius 57.1655
lwrist 10.1971
lhand -21.0881 31.9097
lfingers 7.12502
lthumb 5.28929 61.8237
rfemur -51.3259 12.9262 6.7419
rtibia 21.8864
rfoot -3.1087 -18.3597
rtoes -8.79646
lfemur -45.6016 -17.0864 -7.33208
ltibia 20.9045
lfoot -8.83628 28.9442
ltoes 2.9236
539
root 0.176213 17.9851 0.162122 35.7258 -8.78418 1.0711
lowerback 24.1926 -0.659872 11.9447
upperback -0.656105 3.05283 3.70871
thorax -14.0587 0.665075 -3.60339
lowerneck -8.6377 2.57933 3.29121
upperneck -7.47839 3.10939 -2.21783
head -0.799668 1.48195 -1.1734
rclavicle 3.65764e-014 2.8625e-014
rhumerus -60.7094 -44.9756 -22.1546
rradius 72.7821
rwrist 179.14
rhand -23.5915 7.75409
rfingers 7.12502
rthumb 2.87186 -22.2063
lclavicle 3.65764e-014 2.8625e-014
lhumerus -52.5841 28.1959 49.712
lradius 57.2021
lwrist 10.6962
lhand -21.0726 31.9559
lfingers 7.12502
lthumb 5.30422 61.8695
rfemur -51.3041 12.8723 6.94166
rtibia 21.8336
rfoot -2.95998 -18.2902
rtoes -9.46496
lfemur -45.6417 -17.1969 -7.08968
ltibia 20.8746
lfoot -8.8458 29.0614
ltoes 2.8663
540
root 0.166415 17.985 0.164467 35.8078 -8.72028 1.02519
lowerback 24.1707 -0.675437 12.0102
upperback -0.697434 3.05043 3.69219
thorax -14.0928 0.655295 -3.65728
lowerneck -8.62055 2.58496 3.27777
upperneck -7.41883 3.11883 -2.22854
head -0.783523 1.48759 -1.17389
rclavicle -3.18055e-015 -6.36111e-015
rhumerus -60.6127 -45.04 -22.4055
rradius 72.4958
rwrist 178.673
rhand -23.2746 7.75135
rfingers 7.12502
rthumb 3.17796 -22.2047
lclavicle -3.18055e-015 -6.36111e-015
lhumerus -52.538 28.1316 49.841
lradius 57.2265
lwrist 11.2348
lhand -20.7696 32.0432
lfingers 7.12502
lthumb 5.59683 61.9493
rfemur -51.3448 12.7848 7.10054
rtibia 21.7938
rfoot -2.81736 -18.1883
rtoes -10.1481
lfemur -45.7223 -17.286 -6.8949
ltibia 20.8566
lfoot -8.8331 29.2258
ltoes 2.79215
541
root 0.155707 17.9846 0.167832 35.8423 -8.75459 1.0184
lowerback 24.1295 -0.660811 11.9499
upperback -0.686232 3.03925 3.65601
thorax -14.0572 0.655562 -3.66106
lowerneck -8.57138 2.58656 3.2985
upperneck -7.47172 3.12007 -2.24809
head -0.807365 1.4878 -1.18485
rclavicle -3.02153e-014 -2.70347e-014
rhumerus -60.4769 -45.1296 -22.7246
rradius 72.2262
rwrist 178.186
rhand -23.0392 7.60454
rfingers 7.12502
rthumb 3.4052 -22.348
lclavicle -3.02153e-014 -2.70347e-014
lhumerus -52.4565 28.2381 49.9047
lradius 57.152
lwrist 11.6004
lhand -20.6795 32.405
lfingers 7.12502
lthumb 5.68381 62.3088
rfemur -51.3697 12.7991 7.12528
rtibia 21.7811
rfoot -2.90082 -18.1719
rtoes -9.68958
lfemur -45.7307 -17.3927 -6.77195
ltibia 20.8331
lfoot -9.0341 29.3863
ltoes 3.18998
542
root 0.144283 17.9828 0.169911 35.8656 -8.80311 1.03123
lowerback 24.131 -0.645985 11.875
upperback -0.691699 3.03146 3.60752
thorax -14.0656 0.654641 -3.67286
lowerneck -8.53853 2.56467 3.27899
upperneck -7.51739 3.09413 -2.21666
head -0.828513 1.47506 -1.17311
rclavicle -1.59028e-015 -3.97569e-014
rhumerus -60.4438 -45.2863 -22.9858
rradius 72.0201
rwrist 177.867
rhand -22.8579 7.42542
rfingers 7.12502
rthumb 3.58031 -22.5243
lclavicle -1.59028e-015 -3.97569e-014
lhumerus -52.4526 28.4039 49.8777
lradius 57.1017
lwrist 11.9362
lhand -20.8996 32.712
lfingers 7.12502
lthumb 5.47133 62.6214
rfemur -51.3947 12.782 7.16032
rtibia 21.7889
rfoot -2.86458 -18.1081
rtoes -10.3667
lfemur -45.7113 -17.4451 -6.71404
ltibia 20.7833
lfoot -9.05756 29.5086
ltoes 3.05086
543
root 0.13383 17.9829 0.173022 35.8876 -8.8235 1.08413
lowerback 24.0908 -0.638519 11.8069
upperback -0.704549 3.01116 3.56455
thorax -14.061 0.64864 -3.67676
lowerneck -8.80012 2.54612 3.19241
upperneck -7.15291 3.07411 -2.08453
head -0.676357 1.46732 -1.10965
rclavicle 4.13472e-014 2.8625e-014
rhumerus -60.4166 -45.4034 -23.2342
rradius 71.8808
rwrist 177.442
rhand -22.605 7.38
rfingers 7.12502
rthumb 3.8245 -22.5654
lclavicle 4.13472e-014 2.8625e-014
lhumerus -52.4612 28.4326 49.918
lradius 57.0883
lwrist 12.655
lhand -21.1776 32.6706
lfingers 7.12502
lthumb 5.20288 62.5867
rfemur -51.4332 12.7442 7.15283
rtibia 21.8244
rfoot -2.91391 -18.0441
rtoes -10.0565
lfemur -45.6911 -17.5173 -6.69644
ltibia 20.7119
lfoot -8.97837 29.6112
ltoes 2.72324
